<svg width="15" height="16" viewBox="0 0 15 16" fill="none" xmlns="http://www.w3.org/2000/svg">
<g id="bug_report">
<mask id="mask0_67_636" style="mask-type:alpha" maskUnits="userSpaceOnUse" x="-1" y="0" width="16" height="16">
<rect id="Bounding box" x="-0.00134277" y="0.5" width="15" height="15" fill="#D9D9D9"/>
</mask>
<g mask="url(#mask0_67_636)">
<path id="bug_report_2" d="M7.49866 12.125C8.00564 12.125 8.4397 11.9427 8.80085 11.5781C9.16189 11.2135 9.35282 10.7708 9.37366 10.25V7.25C9.39449 6.72917 9.22001 6.28646 8.85022 5.92188C8.48043 5.55729 8.03251 5.375 7.50647 5.375C6.98043 5.375 6.53772 5.55729 6.17834 5.92188C5.81897 6.28646 5.63407 6.72917 5.62366 7.25V10.25C5.61324 10.7708 5.79032 11.2135 6.15491 11.5781C6.51949 11.9427 6.96741 12.125 7.49866 12.125ZM6.37366 10.25H8.62366V9.125H6.37366V10.25ZM6.37366 8.375H8.62366V7.25H6.37366V8.375ZM7.49866 13.25C6.87366 13.25 6.30595 13.0807 5.79553 12.7422C5.28512 12.4036 4.92574 11.9479 4.71741 11.375H2.99866V10.25H4.49866V9.3125H2.99866V8.1875H4.49866V7.25H2.99866V6.125H4.71741C4.80074 5.85417 4.93512 5.60891 5.12053 5.38922C5.30595 5.16953 5.52053 4.97729 5.76428 4.8125L4.49866 3.54688L5.29553 2.75L6.87366 4.3125C7.08053 4.26042 7.29111 4.23438 7.50538 4.23438C7.71965 4.23438 7.93095 4.26042 8.13928 4.3125L9.70178 2.75L10.4987 3.54688L9.23303 4.8125C9.47262 4.97917 9.68095 5.17188 9.85803 5.39062C10.0351 5.60938 10.1757 5.85417 10.2799 6.125H11.9987V7.25H10.4987V8.1875H11.9987V9.3125H10.4987V10.25H11.9987V11.375H10.2799C10.0716 11.9479 9.7122 12.4036 9.20178 12.7422C8.69137 13.0807 8.12366 13.25 7.49866 13.25Z" fill="white"/>
</g>
</g>
</svg>
