<svg width="76" height="35" viewBox="0 0 76 35" fill="none" xmlns="http://www.w3.org/2000/svg">
<g id="Vector">
<path d="M21.185 24.9625H21.215C21.375 24.4625 21.62 24.0625 21.95 23.7625C22.29 23.4625 22.675 23.3125 23.105 23.3125C23.265 23.3125 23.39 23.3275 23.48 23.3575V25.0675C23.37 25.0375 23.215 25.0225 23.015 25.0225C22.415 25.0225 21.975 25.2525 21.695 25.7125C21.425 26.1625 21.29 26.8675 21.29 27.8275V31.2175H19.43V25.7275C19.43 24.7975 19.405 24.0575 19.355 23.5075H21.11C21.16 24.0075 21.185 24.4925 21.185 24.9625Z" fill="#414141"/>
<path d="M24.6264 25.2925L24.5514 23.8225C25.2414 23.4825 26.0614 23.3125 27.0114 23.3125C29.0114 23.3125 30.0114 24.3625 30.0114 26.4625C30.0114 26.7325 30.0064 27.1625 29.9964 27.7525C29.9864 28.3425 29.9814 28.7025 29.9814 28.8325C29.9814 29.7725 30.0064 30.5675 30.0564 31.2175H28.4814C28.4614 31.0575 28.4514 30.8575 28.4514 30.6175C28.4514 30.3575 28.4564 30.1575 28.4664 30.0175H28.4364C28.0064 30.9075 27.2614 31.3525 26.2014 31.3525C25.4614 31.3525 24.8814 31.1375 24.4614 30.7075C24.0414 30.2675 23.8314 29.6875 23.8314 28.9675C23.8314 28.1375 24.1364 27.5025 24.7464 27.0625C25.3564 26.6125 26.2214 26.3875 27.3414 26.3875C27.6614 26.3875 27.9814 26.4025 28.3014 26.4325V26.3725C28.3014 25.2425 27.7714 24.6775 26.7114 24.6775C25.9414 24.6775 25.2464 24.8825 24.6264 25.2925ZM28.3164 27.5575C28.1364 27.5375 27.9314 27.5275 27.7014 27.5275C26.2514 27.5275 25.5264 27.9925 25.5264 28.9225C25.5264 29.2625 25.6264 29.5425 25.8264 29.7625C26.0264 29.9725 26.3014 30.0775 26.6514 30.0775C26.9914 30.0775 27.2864 29.9825 27.5364 29.7925C27.7964 29.5925 27.9864 29.3375 28.1064 29.0275C28.2464 28.6775 28.3164 28.1875 28.3164 27.5575Z" fill="#414141"/>
<path d="M33.519 24.8275H33.549C33.969 23.8175 34.659 23.3125 35.619 23.3125C37.129 23.3125 37.884 24.3675 37.884 26.4775V31.2175H36.024V27.0925C36.024 26.3125 35.954 25.7325 35.814 25.3525C35.684 24.9725 35.414 24.7825 35.004 24.7825C34.564 24.7825 34.224 25.0275 33.984 25.5175C33.744 26.0075 33.624 26.6325 33.624 27.3925V31.2175H31.764V25.8325C31.764 24.9625 31.739 24.1875 31.689 23.5075H33.459C33.499 23.9475 33.519 24.3875 33.519 24.8275Z" fill="#414141"/>
<path d="M39.3588 31.0525L39.4788 29.4775C40.0788 29.8075 40.7088 29.9725 41.3688 29.9725C41.7288 29.9725 42.0088 29.8975 42.2088 29.7475C42.4188 29.5975 42.5238 29.3825 42.5238 29.1025C42.5238 28.8425 42.4288 28.6325 42.2388 28.4725C42.0588 28.3025 41.6888 28.0925 41.1288 27.8425C40.4888 27.5525 40.0338 27.2425 39.7638 26.9125C39.5038 26.5825 39.3738 26.1575 39.3738 25.6375C39.3738 24.8875 39.6288 24.3125 40.1388 23.9125C40.6588 23.5125 41.3238 23.3125 42.1338 23.3125C42.8438 23.3125 43.4638 23.4125 43.9938 23.6125L43.8738 25.0225C43.3138 24.7825 42.7538 24.6625 42.1938 24.6625C41.8838 24.6625 41.6288 24.7325 41.4288 24.8725C41.2388 25.0125 41.1438 25.2175 41.1438 25.4875C41.1438 25.7375 41.2338 25.9375 41.4138 26.0875C41.5938 26.2375 41.9338 26.4175 42.4338 26.6275C43.0838 26.9075 43.5538 27.2225 43.8438 27.5725C44.1338 27.9125 44.2788 28.3625 44.2788 28.9225C44.2788 29.7125 44.0238 30.3275 43.5138 30.7675C43.0138 31.1975 42.3388 31.4125 41.4888 31.4125C40.7088 31.4125 39.9988 31.2925 39.3588 31.0525Z" fill="#414141"/>
<path d="M47.4639 24.6475H47.4939C47.8739 23.7575 48.5339 23.3125 49.4739 23.3125C50.3439 23.3125 51.0339 23.6825 51.5439 24.4225C52.0639 25.1625 52.3239 26.1275 52.3239 27.3175C52.3239 28.5075 52.0689 29.4875 51.5589 30.2575C51.0589 31.0275 50.3839 31.4125 49.5339 31.4125C48.6139 31.4125 47.9639 31.0125 47.5839 30.2125H47.5539C47.5839 30.6225 47.5989 31.2275 47.5989 32.0275V34.3975H45.7089V25.7575C45.7089 24.7175 45.6839 23.9675 45.6339 23.5075H47.3889C47.4189 23.7075 47.4439 24.0875 47.4639 24.6475ZM48.9789 24.7525C48.5189 24.7525 48.1539 25.0075 47.8839 25.5175C47.6139 26.0175 47.4789 26.6475 47.4789 27.4075C47.4789 28.1575 47.6089 28.7775 47.8689 29.2675C48.1389 29.7575 48.5089 30.0025 48.9789 30.0025C49.4189 30.0025 49.7639 29.7525 50.0139 29.2525C50.2639 28.7525 50.3889 28.1225 50.3889 27.3625C50.3889 26.5825 50.2639 25.9525 50.0139 25.4725C49.7739 24.9925 49.4289 24.7525 48.9789 24.7525Z" fill="#414141"/>
<path d="M54.2749 25.2925L54.1999 23.8225C54.8899 23.4825 55.7099 23.3125 56.6599 23.3125C58.6599 23.3125 59.6599 24.3625 59.6599 26.4625C59.6599 26.7325 59.6549 27.1625 59.6449 27.7525C59.6349 28.3425 59.6299 28.7025 59.6299 28.8325C59.6299 29.7725 59.6549 30.5675 59.7049 31.2175H58.1299C58.1099 31.0575 58.0999 30.8575 58.0999 30.6175C58.0999 30.3575 58.1049 30.1575 58.1149 30.0175H58.0849C57.6549 30.9075 56.9099 31.3525 55.8499 31.3525C55.1099 31.3525 54.5299 31.1375 54.1099 30.7075C53.6899 30.2675 53.4799 29.6875 53.4799 28.9675C53.4799 28.1375 53.7849 27.5025 54.3949 27.0625C55.0049 26.6125 55.8699 26.3875 56.9899 26.3875C57.3099 26.3875 57.6299 26.4025 57.9499 26.4325V26.3725C57.9499 25.2425 57.4199 24.6775 56.3599 24.6775C55.5899 24.6775 54.8949 24.8825 54.2749 25.2925ZM57.9649 27.5575C57.7849 27.5375 57.5799 27.5275 57.3499 27.5275C55.8999 27.5275 55.1749 27.9925 55.1749 28.9225C55.1749 29.2625 55.2749 29.5425 55.4749 29.7625C55.6749 29.9725 55.9499 30.0775 56.2999 30.0775C56.6399 30.0775 56.9349 29.9825 57.1849 29.7925C57.4449 29.5925 57.6349 29.3375 57.7549 29.0275C57.8949 28.6775 57.9649 28.1875 57.9649 27.5575Z" fill="#414141"/>
<path d="M64.3674 24.7075C63.9274 24.7075 63.5824 24.9475 63.3324 25.4275C63.0824 25.9075 62.9574 26.5275 62.9574 27.2875C62.9574 28.0675 63.0774 28.6875 63.3174 29.1475C63.5674 29.6075 63.9174 29.8375 64.3674 29.8375C64.8274 29.8375 65.1924 29.5925 65.4624 29.1025C65.7324 28.6125 65.8674 27.9875 65.8674 27.2275C65.8674 26.4875 65.7324 25.8825 65.4624 25.4125C65.2024 24.9425 64.8374 24.7075 64.3674 24.7075ZM65.8224 30.7225C65.8224 30.3625 65.8324 30.0875 65.8524 29.8975H65.8224C65.4024 30.7775 64.7524 31.2175 63.8724 31.2175C63.0024 31.2175 62.3074 30.8675 61.7874 30.1675C61.2774 29.4575 61.0224 28.5125 61.0224 27.3325C61.0224 26.1425 61.2774 25.1775 61.7874 24.4375C62.2974 23.6875 62.9824 23.3125 63.8424 23.3125C64.7624 23.3125 65.4074 23.7175 65.7774 24.5275H65.8074C65.7874 24.1475 65.7774 23.8075 65.7774 23.5075H67.6374V30.6175C67.6374 33.2275 66.4024 34.5325 63.9324 34.5325C62.9824 34.5325 62.1324 34.3875 61.3824 34.0975L61.5174 32.4175C62.2774 32.8275 63.0474 33.0325 63.8274 33.0325C65.1574 33.0325 65.8224 32.2625 65.8224 30.7225Z" fill="#414141"/>
<path d="M75.498 27.9025H70.938C70.958 28.5025 71.158 28.9975 71.538 29.3875C71.928 29.7675 72.463 29.9575 73.143 29.9575C73.743 29.9575 74.338 29.8325 74.928 29.5825L74.988 31.0675C74.368 31.2975 73.703 31.4125 72.993 31.4125C71.743 31.4125 70.783 31.0525 70.113 30.3325C69.443 29.6025 69.108 28.5925 69.108 27.3025C69.108 26.0925 69.413 25.1275 70.023 24.4075C70.633 23.6775 71.448 23.3125 72.468 23.3125C74.508 23.3125 75.528 24.6075 75.528 27.1975C75.528 27.4475 75.518 27.6825 75.498 27.9025ZM70.938 26.6425H73.803C73.803 25.9825 73.688 25.4725 73.458 25.1125C73.238 24.7525 72.908 24.5725 72.468 24.5725C72.048 24.5725 71.698 24.7625 71.418 25.1425C71.138 25.5225 70.978 26.0225 70.938 26.6425Z" fill="#414141"/>
<path d="M2.225 15.955C2.175 15.63 2.1375 15.305 2.1125 14.98C2.0875 14.655 2.075 14.3175 2.075 13.9675C2.075 12.0925 2.425 10.3362 3.125 8.69875C3.825 7.06125 4.78125 5.63625 5.99375 4.42375C7.20625 3.21125 8.63125 2.24875 10.2688 1.53625C11.9062 0.823749 13.65 0.467499 15.5 0.467499C17.35 0.467499 19.0938 0.823749 20.7313 1.53625C22.3687 2.24875 23.8 3.21125 25.025 4.42375C26.25 5.63625 27.2125 7.06125 27.9125 8.69875C28.6125 10.3362 28.9625 12.0925 28.9625 13.9675C28.9625 14.3175 28.95 14.655 28.925 14.98C28.9 15.305 28.8625 15.63 28.8125 15.955H26.525C26.575 15.63 26.6187 15.305 26.6562 14.98C26.6938 14.655 26.7125 14.3175 26.7125 13.9675C26.7125 13.6425 26.7 13.3175 26.675 12.9925C26.65 12.6675 26.6125 12.3425 26.5625 12.0175H21.1625C21.1875 12.3425 21.2062 12.6675 21.2188 12.9925C21.2313 13.3175 21.2375 13.6425 21.2375 13.9675C21.2375 14.3175 21.2313 14.6487 21.2188 14.9612C21.2062 15.2737 21.1875 15.605 21.1625 15.955H18.95C18.975 15.68 18.9875 15.405 18.9875 15.13V13.105C18.9875 12.73 18.9625 12.3675 18.9125 12.0175H12.125C12.075 12.3675 12.0437 12.73 12.0312 13.105C12.0188 13.48 12.0125 13.88 12.0125 14.305V15.13C12.0125 15.405 12.025 15.68 12.05 15.955H9.8375C9.8125 15.63 9.79375 15.305 9.78125 14.98C9.76875 14.655 9.7625 14.3175 9.7625 13.9675C9.7625 13.6425 9.76875 13.3175 9.78125 12.9925C9.79375 12.6675 9.8125 12.3425 9.8375 12.0175H4.475C4.425 12.3425 4.3875 12.6675 4.3625 12.9925C4.3375 13.3175 4.325 13.6425 4.325 13.9675C4.325 14.3175 4.34375 14.655 4.38125 14.98C4.41875 15.305 4.4625 15.63 4.5125 15.955H2.225ZM5.1125 9.7675H10.1C10.325 8.4175 10.6375 7.2175 11.0375 6.1675C11.4375 5.1175 11.975 4.0925 12.65 3.0925C10.925 3.5425 9.4 4.355 8.075 5.53C6.75 6.705 5.7625 8.1175 5.1125 9.7675ZM12.425 9.7675H18.575C18.375 8.4425 18 7.18 17.45 5.98C16.9 4.78 16.25 3.63 15.5 2.53C14.75 3.63 14.1 4.78 13.55 5.98C13 7.18 12.625 8.4425 12.425 9.7675ZM20.9 9.7675H25.925C25.275 8.1175 24.2812 6.705 22.9438 5.53C21.6063 4.355 20.075 3.5425 18.35 3.0925C19.025 4.0925 19.5625 5.1175 19.9625 6.1675C20.3625 7.2175 20.675 8.4175 20.9 9.7675ZM14.375 31.2175V25.5175C14.375 24.0925 13.8875 22.8925 12.9125 21.9175C11.9375 20.9425 10.7375 20.455 9.3125 20.455H0.5V18.205H9.3125C10.5625 18.205 11.725 18.4925 12.8 19.0675C13.875 19.6425 14.775 20.43 15.5 21.43C16.225 20.43 17.1187 19.6425 18.1813 19.0675C19.2438 18.4925 20.4 18.205 21.65 18.205H30.5V20.455H21.65C20.25 20.455 19.0625 20.9487 18.0875 21.9362C17.1125 22.9237 16.625 24.1175 16.625 25.5175V31.2175H14.375Z" fill="#414141"/>
</g>
</svg>
