<?xml version="1.0" encoding="UTF-8"?>
<svg width="24" height="24" viewBox="0 0 24 24" fill="none" xmlns="http://www.w3.org/2000/svg">
    <path d="M20 9V7C20 5.9 19.1 5 18 5H16V3C16 1.9 15.1 1 14 1H10C8.9 1 8 1.9 8 3V5H6C4.9 5 4 5.9 4 7V9C2.9 9 2 9.9 2 11V14C2 15.1 2.9 16 4 16V18C4 19.1 4.9 20 6 20H8V22C8 23.1 8.9 24 10 24H14C15.1 24 16 23.1 16 22V20H18C19.1 20 20 19.1 20 18V16C21.1 16 22 15.1 22 14V11C22 9.9 21.1 9 20 9ZM14 22H10V20H14V22ZM16 3V5H8V3H16ZM6 7H18V9H6V7ZM4 14V11H6V14H4ZM6 18V16H8H16H18V18H6ZM20 14H18V11H20V14ZM13 13H11V15H13V13ZM13 10H11V12H13V10Z" fill="currentColor"/>
</svg>
