<svg width="40" height="40" viewBox="0 0 40 40" fill="none" xmlns="http://www.w3.org/2000/svg">
<g id="translate">
<mask id="mask0_67_206" style="mask-type:alpha" maskUnits="userSpaceOnUse" x="0" y="0" width="40" height="40">
<rect id="Bounding box" width="40" height="40" fill="#D9D9D9"/>
</mask>
<g mask="url(#mask0_67_206)">
<path id="translate_2" d="M19.8054 36.6667L27.4721 16.6667H30.8334L38.5 36.6667H35.5279L33.6804 31.7221H24.5971L22.75 36.6667H19.8054ZM6.7221 31.6388L4.77794 29.6946L13.1667 21.3054C11.8981 19.9999 10.8124 18.6342 9.9096 17.2083C9.00683 15.7825 8.27766 14.3057 7.7221 12.7779H10.6946C11.176 13.9352 11.7639 15.037 12.4584 16.0833C13.1528 17.1297 14.0463 18.2131 15.1388 19.3333C16.2963 18.1389 17.4004 16.6227 18.4513 14.7846C19.5024 12.9468 20.2686 11.1668 20.75 9.44459H1.66669V6.66668H13.6113V3.33334H16.3888V6.66668H28.3334V9.44459H23.5834C23.0742 11.5557 22.2131 13.7177 21 15.9304C19.787 18.1435 18.4814 19.9538 17.0834 21.3613L21.25 25.6113L20.1667 28.5L15.1113 23.2917L6.7221 31.6388ZM25.5279 29.2221H32.75L29.1388 19.5L25.5279 29.2221Z" fill="#1C1B1F"/>
</g>
</g>
</svg>
